<?xml version="1.0" encoding="UTF-8"?>
<svg id="_Слой_1" data-name="Слой 1" xmlns="http://www.w3.org/2000/svg" version="1.1" viewBox="0 0 1122 232">
  <defs>
    <style>
      .cls-1 {
        fill: #000;
        stroke: #000;
        stroke-miterlimit: 10;
      }
    </style>
  </defs>
  <path class="cls-1" d="M94.3,63.9c-3.4.3-6.4.9-6.8,1.3-.9.8-.9-4.2,0,52.3.4,28.6.3,51.3-.3,58-.7,7.8-.6,11.5.2,12.7,1.3,2.2,1.5,2.2,4.1.2,1.9-1.4,2-2.8,2.3-39.9l.3-38.3,15.4-.4c10.6-.2,15.8-.7,16.7-1.6s1.9-1.2,2.8-1.2c2,0,7.9-5.7,9.1-8.8,1.5-3.9,1-14-.7-17.5-4.7-9.1-12.5-14.7-23.3-16.7-5.7-1.1-9.7-1.1-19.8-.1ZM120.1,72.3c7.1,3.2,12.9,11.1,12.9,17.9s-3.8,9.7-7.3,10.5c-1.5.3-3,1-3.3,1.4-.3.5-6.8.9-14.5.9h-13.9v-13.8c0-7.5-.3-14.7-.6-15.9-.8-2.9.9-3.3,13.1-2.9,6.2.2,11.4,1,13.6,1.9Z"/>
  <path class="cls-1" d="M503.8,66.7c-2.5,3-3.1,6.2-3.7,21-.3,7.8-.8,14.3-1.1,14.6s-11.5.6-25,.8l-24.5.4-.6-8c-1.4-17.5-2.9-26.8-4.7-28.1-2.2-1.7-2.8-1.7-4.5.1-1.2,1.1-1.3,2.3-.6,5.2,3.1,12.9,4.7,47.4,3.5,75.8-.5,11.6-.9,25.7-1,31.5-.1,9.7,0,10.5,1.8,10.5s2.2-.7,2.7-1.5c1.4-2.9,3.2-26.7,3.8-52.5l.6-26,24.8-.3,24.7-.2v31.4c0,19.9.4,31.7,1,32.1.6.3,1,3.5,1,7.1,0,7,1.2,10.4,3.6,10.4s1.9-1.2,2.5-2.8c1.3-3.2.6-14.9-1-16.5s-1.1-14.7-1.1-46.7.2-46.5,1.6-50.9c2.2-7.6.1-11.9-3.8-7.4Z"/>
  <path class="cls-1" d="M639.8,78.4c-1.9,1.4-1.3,3,3.9,11.7,5.7,9.5,9.3,21.7,9.3,31.5v4.6l-3.2-3.9c-10.5-12.4-18.7-17.6-29.5-18.8-8.7-1-11.5-.2-11.1,3.3.3,2.6.5,2.7,7.8,3.2,11.3.8,18,4.7,27,15.9,6.4,8,8.4,12.4,6.1,13.3-.6.2-3.3,3.2-6.1,6.8-6.3,8.1-6.1,7.8-8.4,12-3,5.3-11.9,17.1-15.7,20.7-1.9,1.7-5.8,3.9-8.9,4.8-3,.9-6.1,1.9-6.8,2.1-1.4.4-1.2,3.5.3,4.6,1.7,1.3,6.8.9,9.9-.7,1.5-.8,3.4-1.5,4-1.5,2.7,0,18.7-18.2,22-25,2.2-4.6,8.7-14,9.7-14s1.1,3.5-.6,11c-2.8,12.9-1.1,35.3,3.1,40.1.8.8,1.4,1.9,1.4,2.4,0,1.9,5.3,7.5,7.1,7.5,2.8,0,2.5-4.4-.9-9.9-1.5-2.5-3.4-6.5-4.1-8.9-2.1-7.3-1.5-23.3,1.6-39.1.4-2.3.5-2.3,1.7-.5,1.3,2,5,8.9,6.1,11.4.3.8,1.1,2.4,1.8,3.5s2.7,4.6,4.5,7.7c5.7,9.9,13.2,15.8,20.2,15.8s3.3-.7,4.1-1.6c2-2.4-.1-4.8-4.9-5.6-5.3-.9-8.2-3.1-12.4-9.3-1.8-2.8-3.6-5.2-4-5.3-.5-.2-.8-1.2-.8-2.2s-.4-2.2-1-2.5c-.5-.3-2.1-3-3.5-5.8-1.4-2.9-3-5.9-3.5-6.7s-2-3.9-3.4-6.8l-2.6-5.4,4.7-5.6c2.7-3.2,5-5.9,5.3-6.2.7-.7,2.9-4.3,3.7-6,.4-.8,1.2-2,1.7-2.6.6-.7,1.9-2.3,2.9-3.7,1.8-2.5,4.7-4,10-5.1,2-.5,2.7-1.2,2.7-3.1s-.5-2.8-5.5-2.5c-7.1.3-10.7,3.5-19,16.2-2.7,4.2-5.3,7.7-5.6,7.7-.3.1-.9-3.2-1.2-7.2-.6-7.8-2.1-14.9-4.5-21.2-1.9-5.1-4.5-10.9-5.3-11.5-.3-.3-1.6-2.3-2.8-4.6-2.8-5-5.1-6.6-7.3-5Z"/>
  <path class="cls-1" d="M241.2,99.9c-.4,1.2-.4,5.6,0,9.9,1.3,14.4,1,27.5-.8,30-2.3,3.4-1.7,46.3.8,48.8s3.8.8,3.8-13.2v-13.5l3.2-5c1.8-2.7,3.5-4.9,3.8-4.9,1.8.1,6.4,7.1,13.8,21,4.1,7.6,12,17,15.3,18.2,1.7.6,4.9-.9,4.9-2.2s-2.2-3.3-5-6.2c-2.7-2.8-5-5.5-5-5.9s-.6-1.4-1.2-2.1c-1.6-1.7-5.6-8.4-7.1-12.1-.6-1.5-1.5-2.7-1.9-2.7s-.8-.5-.8-1.1-1.6-3.4-3.5-6.3-3.5-5.9-3.5-6.5c0-1,5.9-9.1,8-11.1,2.5-2.2,9.9-13.4,11.4-17,1-2.5,2.3-5.4,2.8-6.5.5-1.2.8-4.5.6-7.5-.3-4.8-.6-5.5-2.5-5.8-1.8-.3-2.3.3-2.9,3.5-1.2,7.1-3.7,13.5-7.1,18.2-1.8,2.5-3.6,5.2-4,6-.6,1.3-4.7,6-14,16.1-4.5,4.8-6.9,4.8-4-.1,1.4-2.6,1.7-5.7,1.6-19.7,0-10.2-.5-18.1-1.2-20.2-1.4-4-4.3-5.2-5.5-2.1Z"/>
  <path class="cls-1" d="M961.2,101.1l-2.4.9.5,29.7c.4,29.6.9,34.1,4.4,42.3,4.6,10.6,8.9,15.1,16.8,17.6,4.6,1.5,5.8,1.5,9.8.3,2.5-.7,5.9-2.4,7.5-3.8,4.9-4.4,7.8-12,5.2-13.6-.5-.3-1-1.4-1-2.4,0-3.3-12.6-14.7-22.8-20.6-3.4-2-8.7-5.9-11.4-8.3l-2.8-2.6v-19.7c0-10.9-.3-20-.7-20.2-.5-.3-1.8-.1-3.1.4ZM986.5,165.5c8.1,6.6,9.6,8.6,9.1,12.3-.6,4-2.6,6.1-7.1,7.3-4.5,1.3-10.4-.3-13.8-3.7s-8.7-16.1-8.7-25.4v-5l7.8,5.2c4.2,2.9,9.9,7,12.7,9.3Z"/>
  <path class="cls-1" d="M161.1,102.7c-1,2-.1,8,2.3,16.3.9,3,2,6.8,2.5,8.5.4,1.6,2,5.5,3.4,8.6,1.5,3.1,2.7,5.9,2.7,6.2,0,2.2,8.3,13.9,13,18.3,3.3,3.2,8.9,3.5,14.4.8,2.7-1.3,2.8-1.3,2.1.9-.4,1.2-1.1,4.6-1.6,7.6s-1.3,5.9-1.6,6.4c-.3.6-1,2.7-1.4,4.6-1.3,6.7-5.5,17-10.5,26.3-1.9,3.6-7.5,7.8-10.2,7.8-6.9,0-3.5-13.1,5.6-21.3,2.6-2.4,2.8-4.9.6-6.7-1.3-1.2-2.3-.5-7.2,4.7-8.6,9.1-11.4,19.5-7,25.9,2.4,3.5,5.9,4.7,11,3.7,4-.8,12.5-9.2,15.4-15.4,5.3-11,9.8-24.4,11.3-33.9.4-2.5,1-5,1.3-5.5.3-.6.9-3.5,1.2-6.5.4-3,1.1-7.8,1.6-10.5,2-10.5,3.5-26.4,3.5-37v-11h-2.5c-2.4,0-2.5.3-3.1,8.5-1.2,15.1-2.7,25.4-4.4,29.5-7.7,18.3-10.2,20.6-16.1,14.2-3.4-3.6-7.7-10.6-11.2-18.2-1.3-2.8-2.7-5.8-3.3-6.7-.5-1-.9-2.7-.9-3.8s-.4-2.8-.9-3.8c-1.5-2.7-4.1-11.8-4.1-14.2,0-5-3.9-7.9-5.9-4.3Z"/>
  <path class="cls-1" d="M550.2,103.1c-11.4,5.3-16.7,16.4-16.7,35.4s.9,15.8,3.7,24c1.9,5.2,8.1,17.5,9,17.5s.8.6.8,1.4c0,2.1,10.8,11.6,13.2,11.6s7.7-3.8,11.3-9.4c4.5-7.2,9.1-15.9,9.8-18.7.3-1.3,1-3.8,1.5-5.4,3.6-10.2,4.3-15.3,3.9-26.5-.2-6.3-1-13.2-1.8-15.4-1.8-5-9.4-13-14.3-15-5.3-2.2-15-1.9-20.4.5ZM568.3,108.9c4.6,2,8.2,6.1,10.7,12.1,2.9,6.9,1.7,23.4-2.7,37.5-2,6.7-7.5,18.5-8.5,18.5s-.8.6-.8,1.3c0,1.8-4.8,6.7-6.6,6.7-3.4,0-12.9-13-16.1-22-4.2-11.7-5.5-27.4-3.1-38.2,3.3-14.7,14.5-21.3,27.1-15.9Z"/>
  <path class="cls-1" d="M727.4,130.2c.8,36.4,1.9,57.9,2.9,59.5.9,1.5,3.6,1.1,4.8-.8.5-.8.6-9.9.2-21.1l-.6-19.7,2.7-1.1c1.5-.5,6.5-1,11.1-1s8.7-.5,9-1c1.4-2.2,2.5-.8,2.5,3.2s2.7,15.7,5,21.3c.7,1.6,1.6,3.9,2.1,5,5.8,14.1,7.6,16.6,10.3,13.6,1.6-1.8,1.6-2.2-.9-8.2-1.5-3.5-3-6.9-3.4-7.4-.4-.6-1.5-3.7-2.5-7-.9-3.3-2.2-7.5-2.7-9.2-1.3-4.3-1.3-19.6.1-29.1.6-4.3,1-11.8.8-16.7-.3-8.9-.3-9-2.8-9s-2.5.2-3.1,9.8c-1,14.9-3.8,24.1-8.4,27.1-2.6,1.7-17.8,2.3-20.2.8-.9-.6-1.3-6-1.5-19.2l-.3-18.5-2.9-.3-2.8-.4.6,29.4Z"/>
  <path class="cls-1" d="M884.3,102.5c-.3.9-.2,3.3.3,5.3.8,3.9.8,7.7-.1,40.7-.5,17.2-.4,20.7,1.1,25.5,2.8,9,4.9,11.6,12.1,15,7.1,3.4,15.3,2,19.5-3.4,2-2.5,2.7-2,6.2,4.7,3.8,7.1,3.5,12.4-.8,16.6l-3.5,3.4-3-3.1c-2.1-2-3.7-2.9-5.1-2.5-5.7,1.5,1.8,11.3,8.7,11.3s4.3-.8,7.4-4c6.9-7.2,7.5-15.5,2-24.8-2.9-4.9-3.2-6.4-3.7-16-.7-12.9,1.6-43.9,4.6-61.1,1-5.9.1-9.1-2.8-9.1s-4.2,5.1-4.2,10.7-.6,7.8-1.4,12.4-1.7,12.2-2,16.9c-2.2,30.1-3.6,37.1-8.6,41.1-4.2,3.5-6.9,3.6-12,.4-4.4-2.8-5.9-5-7.7-11.5-1.5-5.5-1.7-32.6-.3-33.5.6-.4,1-6.7,1-15.6s-.4-15.7-1.5-17.9c-1.7-3.3-5.2-4.1-6.2-1.5Z"/>
  <path class="cls-1" d="M1012.4,104.7c-1.1,5.6.6,70.7,1.9,78.8,1.2,6.8,1.3,7,4.2,7h3l-.3-8.5c-.2-4.7-.8-10.3-1.3-12.5s-.9-17.5-.9-34-.3-31-.6-32.3c-.4-1.5-1.4-2.2-3-2.2s-2.4.7-3,3.7Z"/>
  <path class="cls-1" d="M313.7,104.2c-1.4,1.1-1.5,1.9-.6,5.1.6,2.3.8,7.8.4,13.5-.3,5.3-.8,18.7-1.1,29.6-.6,22.7.5,28.8,6.2,35.4,3,3.6,3.4,3.7,9.7,3.7s7-.4,11.8-3.7c3-2,6.3-5.2,7.3-6.9,3.2-5.4,4.9-7,5.8-5.6.4.6.8,2.4.8,3.9s.4,2.9.9,3.3c.5.3,1.2,1.9,1.6,3.5.7,3.1,3.8,5.6,5.5,4.5,1.5-.9,1.2-6.2-.4-9.8s-1.7-4.6-1.9-6.2c-.3-1.7-1.1-5-1.7-7.5-1.2-4.5-.7-45.5.6-56.1.5-3.5.2-4.9-1.1-6.3-3.9-3.9-5.4,2.3-6.1,25.9-.5,17.5-2.3,32.4-4.5,37.5-5,11.6-10.8,17-18.1,17s-4.6-.5-5.8-2.2c-1.5-2.3-1.8-3.3-3.9-11.3-1.7-6.5-1.4-31.3.5-38.7,2.1-8,1.5-23.4-1-27.3-1.9-2.8-2.5-3-4.9-1.3Z"/>
  <path class="cls-1" d="M807.1,103.9c-1.2.8-1.2,2.1,0,9.1,1.1,6.8,1.1,9.2-.1,14.8-2.1,10.3-2.5,42.4-.5,48.4.8,2.6,1.5,5.3,1.5,6s1.6,3.1,3.4,5.3c3.4,4,3.5,4,10.2,4,9.4-.1,14.7-3.5,21.4-13.7,2.6-3.9,4-4.1,4-.5s4.1,12.5,5.8,13.2c3.5,1.3,4.5-4,2-10.3-4.6-11.2-5.6-25-3.8-53.7,1-18.2,1-20.9-.3-22.2-3.9-3.9-5.4,3.3-6.2,28.2-.6,18.7-1.2,23.6-4.3,34.5-3.2,11.1-10.1,18-18,18s-10-6.1-10.8-28.5c-.5-12-.3-16.2,1-21.1,2.7-10.2,1.6-29.5-1.7-31.6-1.5-1-1.9-1-3.6.1Z"/>
  <path class="cls-1" d="M387.3,142.8c-2.7.4-3.2,4.6-.7,5.6s18.2.8,21.1,0c2.4-.7,3.7-4,2-5.1-1.2-.8-18-1.1-22.4-.5Z"/>
</svg>